<?xml version="1.0" encoding="utf-8"?>
<svg version="1.0" xmlns="http://www.w3.org/2000/svg" width="600.000000pt" height="498.000000pt" viewBox="0 0 600.000000 498.000000" preserveAspectRatio="xMidYMid meet">
  <g transform="translate(0.000000,498.000000) scale(0.100000,-0.100000)" fill="#000000" stroke="none">
    <path d="M4486 4964 c-91 -33 -149 -111 -162 -215 -3 -30 -12 -73 -20 -97 -19 -57 -5 -119 33 -149 57 -45 63 -54 63 -83 0 -42 -22 -90 -56 -121 -16 -15 -96 -61 -178 -103 -167 -85 -242 -137 -288 -199 -44 -60 -56 -94 -72 -199 -8 -51 -28 -129 -46 -173 -26 -64 -34 -101 -39 -182 l-7 -101 -60 -64 c-94 -101 -136 -196 -193 -442 -12 -54 -29 -98 -41 -111 -12 -13 -62 -47 -112 -76 -102 -61 -148 -99 -148 -123 0 -24 48 -69 65 -62 22 8 19 -1 -25 -82 -22 -40 -40 -84 -40 -98 0 -27 40 -74 64 -74 8 0 17 -8 20 -18 10 -31 52 -48 86 -35 16 6 34 7 41 2 8 -5 43 -6 79 -3 79 8 105 28 125 99 21 73 45 220 45 275 0 70 64 186 183 334 99 124 161 228 192 326 27 85 77 210 84 210 12 0 71 -305 71 -367 0 -34 -15 -153 -34 -265 -47 -278 -56 -368 -56 -580 0 -189 14 -353 50 -568 25 -158 25 -204 -2 -354 -32 -176 -30 -360 7 -571 39 -226 25 -343 -56 -475 -53 -86 -49 -152 13 -190 30 -19 47 -20 161 -18 128 3 129 3 154 32 22 26 24 35 17 70 -5 23 -8 118 -7 212 2 153 5 185 33 303 61 259 66 329 44 582 -6 65 -3 85 16 135 18 48 24 89 30 214 4 96 16 200 31 273 l23 118 23 -103 c14 -64 26 -165 32 -268 6 -128 13 -180 31 -230 20 -58 21 -75 14 -150 -5 -47 -8 -137 -8 -200 1 -100 5 -133 38 -255 52 -191 58 -243 41 -327 -13 -60 -13 -76 0 -133 11 -44 13 -86 9 -129 -13 -129 8 -146 178 -146 125 0 169 15 188 66 17 43 11 68 -36 157 -46 90 -74 187 -74 268 0 25 12 113 26 195 36 201 38 398 6 570 -28 155 -28 170 9 414 25 168 32 248 36 440 6 262 1 327 -53 653 -19 114 -34 234 -34 267 0 32 13 116 29 187 17 70 31 142 33 158 l3 30 17 -30 c9 -17 32 -76 51 -131 64 -182 147 -325 302 -519 40 -49 77 -100 83 -111 6 -12 14 -59 17 -105 7 -100 41 -273 61 -311 8 -15 22 -31 32 -36 30 -16 142 -24 157 -12 10 8 19 8 34 -2 26 -16 72 -1 85 27 5 11 23 27 40 35 17 8 37 27 44 43 12 26 10 34 -32 113 -25 48 -46 87 -46 88 0 0 12 2 27 3 52 3 71 64 31 99 -30 26 -123 86 -175 113 -59 29 -79 60 -114 174 -39 127 -102 275 -168 393 -28 50 -60 122 -72 160 -12 38 -36 116 -54 174 -20 63 -36 137 -39 186 -16 211 -80 287 -367 433 -79 40 -159 87 -176 104 -63 59 -69 153 -13 182 57 29 81 105 56 172 -8 21 -17 62 -21 92 -13 111 -72 187 -167 216 -63 18 -120 18 -172 -1z m167 -48 c75 -27 117 -92 125 -195 3 -37 11 -72 19 -80 25 -25 0 -111 -32 -111 -8 0 -23 -12 -34 -26 -20 -25 -20 -25 -66 -10 -25 9 -66 16 -90 16 -24 0 -65 -7 -90 -16 -46 -15 -46 -15 -66 10 -11 14 -26 26 -34 26 -7 0 -18 6 -24 14 -15 18 -19 95 -5 104 6 4 13 36 16 72 11 134 82 207 203 209 22 0 57 -6 78 -13z m-93 -858 l0 -421 -24 22 c-27 25 -54 87 -112 255 -42 123 -95 209 -147 240 l-36 22 89 48 c49 27 103 63 121 80 37 36 68 99 69 138 0 23 10 35 33 37 4 1 7 -189 7 -421z m54 416 c9 -3 16 -18 16 -33 1 -77 68 -152 198 -221 l81 -44 -27 -16 c-32 -20 -86 -80 -106 -118 -8 -15 -35 -88 -61 -162 -60 -171 -90 -230 -117 -230 -4 0 -8 187 -8 415 0 228 2 415 4 415 2 0 11 -3 20 -6z m-129 -46 c-9 -38 -31 -84 -45 -93 -7 -4 -7 3 0 20 6 15 10 41 10 60 0 30 9 42 33 44 5 1 5 -14 2 -31z m201 24 c6 -4 14 -32 17 -62 l6 -55 -18 30 c-21 34 -37 95 -24 95 4 0 13 -4 19 -8z m-502 -328 c22 -58 -4 -107 -105 -195 -40 -35 -88 -79 -106 -98 l-32 -34 5 39 c24 176 48 214 179 283 48 25 51 25 59 5z m91 -8 c35 -27 86 -116 115 -202 11 -32 20 -59 20 -61 0 -1 -30 -3 -67 -3 -62 0 -215 29 -230 44 -3 3 12 25 35 50 54 59 72 96 72 151 0 52 9 56 55 21z m657 -20 c-5 -53 14 -92 75 -157 l44 -47 -89 -21 c-75 -18 -222 -29 -222 -18 0 14 42 122 65 167 30 60 87 120 113 120 14 0 17 -8 14 -44z m128 3 c87 -55 122 -107 135 -204 3 -27 8 -61 11 -75 5 -23 2 -21 -33 15 -21 22 -64 62 -96 89 -98 82 -132 144 -111 200 8 21 33 14 94 -25z m-1124 -126 c-4 -14 -36 -225 -36 -240 0 -13 -19 2 -28 22 -24 53 -14 111 34 193 26 44 39 55 30 25z m1330 -68 c27 -56 31 -126 10 -164 -7 -13 -16 -20 -19 -15 -3 5 -13 60 -22 123 -9 62 -19 121 -22 130 -9 30 28 -22 53 -74z m-950 -87 l110 -11 23 -64 c22 -61 69 -125 100 -135 13 -4 13 -16 -2 -88 -25 -131 -77 -218 -239 -405 l-35 -39 5 56 c6 82 -11 146 -84 300 -68 145 -89 218 -100 355 l-7 81 59 -19 c33 -11 109 -25 170 -31z m-247 -108 c7 -69 15 -134 18 -146 6 -29 -39 -79 -98 -109 -61 -32 -64 -31 -38 5 26 35 28 94 5 159 -31 86 -21 126 53 204 24 25 37 33 41 25 4 -7 12 -69 19 -138z m987 68 c-11 -130 -31 -200 -101 -349 -73 -155 -89 -216 -83 -297 l5 -56 -34 40 c-166 192 -215 275 -241 406 -14 71 -14 82 -1 86 30 10 77 73 101 137 l24 66 85 4 c46 3 116 13 154 24 106 28 99 33 91 -61z m136 -16 c24 -39 25 -90 4 -151 -23 -62 -21 -123 5 -155 24 -31 12 -33 -40 -7 -52 27 -104 88 -97 115 2 11 10 77 16 146 7 69 14 131 16 139 6 17 64 -36 96 -87z m-1325 -62 c9 -13 10 -27 3 -45 -5 -14 -23 -93 -40 -176 -17 -83 -37 -165 -45 -183 -12 -29 -13 -22 -14 89 -1 105 3 129 25 190 14 39 31 87 37 108 13 42 17 45 34 17z m1469 -126 c31 -93 63 -283 52 -316 -7 -20 -44 105 -68 226 -12 60 -28 128 -35 151 -9 31 -9 47 -1 61 10 18 10 18 14 -1 2 -11 19 -65 38 -121z m-1410 31 c26 -62 19 -100 -27 -150 -23 -25 -44 -44 -46 -42 -4 4 32 183 42 210 10 24 14 22 31 -18z m1353 -82 c12 -55 21 -104 21 -108 0 -16 -69 49 -80 75 -17 42 10 165 31 143 4 -5 17 -54 28 -110z m-1048 -266 c25 -79 21 -147 -10 -218 l-20 -44 0 57 c-1 32 -15 119 -32 195 -17 75 -32 160 -35 187 l-4 51 40 -80 c22 -44 49 -111 61 -148z m784 156 c-4 -32 -20 -115 -36 -185 -16 -69 -29 -150 -30 -180 l-1 -53 -15 35 c-32 73 -38 132 -21 201 16 64 92 239 103 239 4 0 3 -26 0 -57z m-1050 -86 c-121 -198 -284 -397 -415 -507 -45 -38 -49 -39 -41 -17 36 93 96 189 178 280 69 77 96 119 129 202 15 37 36 71 48 78 32 18 151 65 155 61 2 -1 -23 -45 -54 -97z m1302 42 c36 -17 45 -28 67 -85 34 -83 62 -127 132 -206 31 -35 70 -82 86 -106 34 -50 103 -191 96 -198 -9 -9 -265 263 -329 350 -61 83 -188 284 -189 298 0 7 51 -13 137 -53z m-708 -271 c0 -298 -1 -312 -17 -288 -9 13 -43 54 -75 89 -68 75 -95 124 -103 185 -6 39 -3 47 28 82 55 61 121 156 142 202 10 23 21 42 23 42 1 0 3 -141 2 -312z m131 150 c19 -23 49 -60 68 -82 31 -35 34 -43 28 -82 -8 -61 -35 -110 -103 -185 -32 -35 -66 -76 -75 -89 -16 -24 -17 -9 -17 290 l-1 315 34 -62 c18 -33 48 -81 66 -105z m832 -132 c27 -54 48 -99 46 -101 -2 -2 -31 29 -64 69 -63 73 -84 120 -84 186 l0 35 26 -45 c14 -25 48 -89 76 -144z m-1787 147 c-2 -10 -7 -35 -10 -56 -4 -25 -21 -55 -52 -89 -25 -29 -66 -79 -90 -111 -23 -33 -43 -57 -43 -55 0 19 55 160 76 196 28 48 101 132 114 132 5 0 7 -8 5 -17z m195 -106 c-47 -114 -79 -155 -200 -255 -97 -81 -162 -151 -195 -207 -8 -14 -17 -15 -44 -8 l-33 9 63 56 c160 140 324 324 406 453 39 62 40 41 3 -48z m1488 -202 c54 -61 135 -144 181 -185 69 -62 79 -75 64 -81 -33 -13 -39 -10 -72 42 -20 30 -85 95 -161 160 l-128 109 -56 112 c-31 61 -56 118 -56 127 0 8 29 -28 65 -80 35 -52 109 -144 163 -204z m-1053 24 c10 -19 46 -65 80 -104 102 -114 110 -137 110 -290 0 -81 -5 -144 -13 -167 -18 -52 -61 -84 -129 -98 -72 -15 -89 -23 -134 -67 l-37 -35 -35 70 c-57 111 -70 170 -65 286 9 184 62 353 144 461 l38 48 12 -35 c6 -19 20 -50 29 -69z m560 -44 c45 -92 85 -276 85 -387 0 -97 -17 -162 -67 -262 l-35 -69 -36 36 c-46 44 -63 52 -135 67 -32 6 -70 22 -86 36 -45 38 -56 83 -56 229 0 155 7 172 121 303 55 62 78 98 91 139 l17 56 34 -39 c18 -21 49 -70 67 -109z m610 -187 c47 -53 65 -92 48 -109 -7 -7 -19 4 -37 33 -15 24 -51 72 -82 108 -30 36 -60 74 -66 85 -16 27 82 -56 137 -117z m-1822 90 c-4 -7 -24 -38 -44 -68 -20 -30 -46 -75 -58 -99 -20 -39 -24 -42 -38 -28 -23 23 -9 51 69 133 67 70 89 89 71 62z m-178 -208 c32 -30 38 -66 30 -162 l-7 -81 -53 6 c-61 6 -146 40 -172 69 -10 12 -16 31 -15 48 4 39 -28 49 -67 20 -16 -11 -32 -16 -35 -11 -6 9 144 109 194 130 37 16 99 6 125 -19z m2220 11 c56 -25 188 -112 181 -119 -3 -3 -21 3 -40 13 -30 16 -37 17 -51 5 -10 -8 -15 -23 -12 -37 9 -47 -107 -113 -199 -113 -38 0 -43 14 -46 125 -2 81 10 111 55 130 43 19 64 18 112 -4z m-2468 -298 c-20 -43 -44 -79 -52 -81 -31 -7 -26 30 16 108 38 71 45 79 58 65 13 -13 10 -23 -22 -92z m2622 16 c36 -66 39 -78 27 -89 -22 -18 -34 -5 -72 77 -27 59 -32 79 -22 90 14 17 17 14 67 -78z m-1779 27 c0 -7 21 -55 46 -106 l45 -94 -35 -75 c-20 -42 -42 -103 -49 -136 l-14 -60 -6 49 c-11 80 -8 448 3 441 6 -3 10 -12 10 -19z m904 -416 l-6 -65 -19 75 c-11 41 -33 104 -49 139 l-31 65 45 95 c24 53 48 105 53 116 10 25 17 -335 7 -425z m794 339 c26 -56 37 -92 31 -100 -13 -22 -33 6 -68 96 -22 58 -27 81 -19 87 15 9 9 18 56 -83z m-2438 73 c0 -14 -61 -167 -71 -176 -6 -6 -13 -6 -21 2 -9 9 -2 32 27 97 21 47 44 85 51 85 8 0 14 -3 14 -8z m74 -28 c-9 -51 -48 -154 -58 -154 -24 0 -25 12 -4 69 11 31 25 66 29 79 8 22 36 26 33 6z m2279 -61 c17 -47 24 -80 18 -86 -17 -17 -30 2 -51 72 -23 80 -24 91 -7 91 6 0 25 -35 40 -77z m-2201 61 c9 -8 -22 -117 -38 -133 -24 -26 -28 -3 -9 61 10 35 20 66 22 71 5 8 17 9 25 1z m2093 -4 c4 -6 15 -40 25 -76 18 -61 18 -65 2 -62 -25 5 -67 148 -44 148 6 0 14 -5 17 -10z m-1105 -300 c-6 -74 -16 -160 -23 -190 l-13 -55 -18 105 c-21 120 -57 243 -93 313 -13 27 -23 50 -21 51 2 2 30 8 63 15 33 6 71 19 85 30 l25 18 3 -76 c2 -42 -1 -137 -8 -211z m195 239 c33 -7 61 -13 63 -15 2 -1 -8 -24 -21 -51 -36 -70 -72 -193 -92 -308 -9 -55 -18 -101 -20 -103 -13 -14 -45 289 -45 436 l0 93 28 -21 c15 -11 54 -25 87 -31z m-357 -112 c67 -161 97 -336 97 -577 0 -146 -3 -184 -19 -230 l-19 -54 -49 149 c-26 83 -54 179 -62 215 -40 186 -47 484 -13 548 10 18 22 30 27 27 4 -3 22 -38 38 -78z m492 13 c21 -76 4 -384 -29 -530 -6 -25 -32 -112 -59 -194 l-49 -150 -19 55 c-16 45 -19 82 -19 229 1 249 35 442 105 597 29 64 32 67 46 48 8 -10 19 -35 24 -55z m-604 -312 c19 -213 16 -249 -38 -373 l-33 -77 -12 89 c-7 48 -16 145 -19 214 -8 145 9 252 53 347 l27 57 3 -35 c2 -19 10 -119 19 -222z m697 174 c51 -137 58 -295 24 -536 l-12 -88 -33 78 c-53 123 -58 166 -38 360 9 93 16 188 16 212 0 23 4 42 9 42 5 0 20 -30 34 -68z m-670 -973 c-3 -236 -9 -429 -13 -429 -12 0 -58 56 -78 96 -40 79 -56 162 -56 289 1 146 23 246 91 410 42 99 49 111 55 88 4 -14 4 -219 1 -454z m704 181 c33 -122 37 -309 9 -409 -28 -101 -85 -201 -114 -201 -10 0 -23 825 -15 879 5 32 8 28 50 -70 25 -57 56 -147 70 -199z m-572 -55 c35 -154 31 -236 -15 -351 -17 -43 -43 -99 -58 -124 l-27 -45 -3 75 c-2 41 0 230 4 420 l7 345 33 -100 c18 -55 44 -154 59 -220z m420 -98 c4 -247 2 -407 -3 -407 -11 0 -74 125 -97 195 -40 116 -25 264 47 492 23 73 43 132 45 130 1 -2 5 -186 8 -410z m-455 -472 c-29 -117 -32 -143 -33 -309 -1 -99 1 -193 6 -208 13 -48 -10 -58 -134 -58 -96 0 -111 2 -129 20 -25 25 -25 46 0 90 91 157 118 300 86 465 -8 39 -13 71 -11 73 6 7 77 -128 87 -165 6 -23 8 -77 4 -136 -9 -137 11 -125 41 24 22 112 103 364 110 342 2 -6 -10 -68 -27 -138z m420 0 c17 -52 39 -134 49 -182 11 -57 22 -88 30 -88 10 0 14 23 15 91 1 85 4 96 41 168 36 70 68 115 52 73 -4 -10 -12 -55 -19 -102 -20 -138 8 -281 78 -396 39 -65 42 -91 14 -119 -18 -18 -33 -20 -129 -20 -133 0 -136 3 -128 98 4 44 2 88 -8 129 -13 54 -12 70 1 133 13 64 13 82 0 160 -9 48 -20 100 -26 114 -11 30 -12 36 -6 36 2 0 19 -43 36 -95z" style="fill: rgb(255, 255, 255);"/>
    <path d="M1321 4936 c-49 -18 -111 -74 -132 -120 -13 -28 -19 -65 -19 -113 0 -59 -4 -77 -20 -93 -45 -45 -10 -178 53 -205 37 -15 67 -70 67 -121 0 -42 -55 -87 -145 -119 -156 -55 -229 -89 -279 -130 -66 -53 -104 -124 -112 -206 -5 -47 -15 -79 -39 -120 -57 -98 -77 -164 -82 -277 l-6 -103 -42 -29 c-108 -74 -169 -175 -233 -386 -48 -160 -59 -184 -97 -207 -126 -79 -220 -145 -229 -160 -16 -26 12 -71 47 -75 15 -2 27 -5 27 -8 0 -3 -18 -38 -40 -78 -22 -40 -40 -85 -40 -99 0 -26 30 -67 48 -67 5 0 26 -16 46 -36 31 -30 41 -35 64 -29 15 4 33 7 40 6 6 -1 27 -2 45 -2 17 0 49 0 70 0 69 0 100 56 132 240 8 46 15 108 15 138 0 87 52 175 173 297 109 110 119 126 168 271 22 67 51 126 87 180 64 94 60 90 68 83 11 -11 34 -184 34 -255 0 -44 -16 -154 -39 -275 -85 -436 -94 -620 -47 -928 63 -412 61 -383 37 -590 -25 -213 -22 -270 29 -513 34 -160 52 -331 43 -409 -7 -64 -31 -114 -90 -190 -100 -127 -53 -208 119 -208 90 0 156 18 195 54 47 43 51 86 22 217 -19 84 -23 133 -23 254 0 162 14 252 59 385 37 106 40 174 16 309 l-20 115 24 63 c28 72 39 149 60 418 9 105 25 252 35 328 11 75 21 165 21 200 2 57 2 54 10 -31 5 -51 15 -139 24 -195 8 -56 24 -217 36 -357 18 -222 25 -266 50 -342 l30 -87 -22 -123 c-24 -141 -22 -170 22 -306 64 -203 76 -458 30 -646 -44 -177 6 -241 196 -254 64 -4 93 -1 128 13 92 34 94 107 8 219 -79 103 -86 128 -80 285 4 102 14 178 40 302 47 223 53 313 32 464 -26 180 -23 277 20 545 62 387 55 568 -41 1043 -19 94 -34 200 -34 236 0 64 26 250 36 260 2 3 12 -6 22 -19 68 -94 94 -141 127 -227 57 -150 97 -214 206 -329 136 -145 146 -165 158 -300 11 -128 36 -248 59 -284 30 -48 40 -51 150 -51 17 0 40 1 50 1 9 1 29 -2 44 -5 22 -6 33 -1 62 26 19 19 46 42 59 51 44 31 42 60 -9 153 l-46 85 25 0 c45 0 73 50 49 87 -9 14 -146 104 -200 132 -21 11 -44 26 -51 34 -6 8 -38 91 -69 185 -32 93 -73 195 -92 226 -34 56 -134 161 -175 183 -17 10 -21 26 -26 115 -8 118 -25 176 -79 268 -29 49 -39 80 -44 128 -10 108 -68 191 -178 256 -25 14 -105 49 -179 77 -139 52 -169 71 -189 120 -10 23 -9 36 5 74 12 29 24 45 35 45 26 0 68 47 80 89 15 54 12 86 -10 114 -15 19 -20 40 -20 87 0 35 -6 81 -12 104 -16 54 -90 128 -144 144 -52 15 -158 14 -203 -2z m192 -50 c84 -30 119 -94 116 -212 -2 -69 0 -78 21 -94 19 -14 22 -23 16 -51 -9 -45 -33 -79 -55 -79 -24 0 -46 -26 -60 -72 -7 -21 -25 -51 -41 -68 -25 -26 -35 -30 -83 -30 -69 0 -90 16 -131 101 -22 45 -37 65 -52 67 -32 5 -55 35 -61 79 -4 30 -1 42 16 57 18 16 21 31 21 98 0 147 67 217 205 217 28 0 67 -6 88 -13z m-145 -749 c23 -72 34 -117 28 -117 -7 0 -84 124 -95 153 -8 20 -7 33 2 48 12 20 12 20 29 -1 9 -11 25 -48 36 -83z m119 62 c-7 -19 -22 -67 -32 -108 l-18 -74 -18 71 c-10 39 -25 84 -33 101 -22 41 -21 44 17 37 17 -3 46 -2 62 3 17 4 31 7 33 6 2 -2 -3 -18 -11 -36z m78 -40 c-24 -53 -85 -139 -85 -119 0 23 19 90 42 148 l21 54 20 -21 c20 -20 20 -21 2 -62z m-289 -11 c4 -13 18 -40 31 -61 14 -22 23 -41 20 -43 -2 -2 -28 1 -58 7 -44 10 -145 8 -202 -4 -6 -1 -13 7 -15 18 -2 17 10 24 83 49 47 16 93 35 103 42 24 19 30 17 38 -8z m449 -21 c81 -30 90 -37 93 -62 3 -22 0 -27 -13 -21 -37 14 -154 18 -204 7 -30 -6 -56 -10 -58 -7 -2 2 10 25 26 52 17 26 31 54 31 62 0 17 2 16 125 -31z m-705 -76 c0 -12 -16 -29 -42 -44 -49 -29 -109 -83 -156 -142 -28 -35 -32 -37 -32 -17 0 60 68 140 160 191 65 36 70 37 70 12z m908 -12 c76 -43 129 -102 147 -162 8 -28 14 -52 12 -53 -2 -2 -22 22 -46 52 -38 48 -114 113 -176 150 -12 6 -16 16 -12 27 9 23 13 22 75 -14z m-602 -40 c76 -29 88 -56 88 -204 1 -98 -2 -115 -24 -159 -34 -68 -74 -89 -160 -83 -49 3 -82 13 -135 40 -70 35 -175 110 -175 125 0 5 24 33 54 64 57 58 86 124 86 194 0 39 6 41 127 43 62 1 96 -4 139 -20z m451 15 c28 -6 31 -10 36 -60 7 -69 50 -147 105 -193 l44 -36 -49 -43 c-122 -108 -283 -158 -370 -114 -65 34 -87 91 -87 222 1 62 7 121 15 145 12 35 21 43 69 62 56 23 169 31 237 17z m-753 -61 c-20 -114 -62 -156 -283 -288 -20 -11 34 79 96 162 61 81 153 161 186 163 4 0 5 -17 1 -37z m879 6 c70 -46 169 -166 220 -266 l17 -31 -81 46 c-104 61 -162 111 -186 164 -22 47 -36 118 -24 118 4 0 29 -14 54 -31z m-1048 -402 c-26 -130 -115 -295 -176 -328 l-22 -11 5 148 c6 199 19 225 158 307 l45 27 3 -31 c2 -17 -4 -68 -13 -112z m1224 99 c115 -74 134 -121 129 -321 l-3 -120 -48 50 c-53 55 -109 160 -131 246 -17 68 -31 189 -21 189 3 0 37 -20 74 -44z m-1131 -123 c15 -70 15 -73 -5 -90 -11 -10 -45 -52 -75 -93 -30 -41 -69 -83 -87 -93 -38 -22 -39 -15 -5 25 57 69 110 210 121 323 l6 70 15 -35 c8 -19 21 -67 30 -107z m1053 -57 c26 -86 47 -128 93 -189 20 -26 33 -47 30 -47 -25 0 -82 54 -130 121 -31 45 -63 83 -71 86 -18 7 -11 66 20 162 l21 66 7 -64 c5 -36 18 -97 30 -135z m-979 -5 c6 -176 3 -175 -30 9 -11 63 -23 124 -28 134 -7 19 -7 19 23 1 l31 -18 4 -126z m876 113 c-6 -21 -19 -86 -28 -144 l-18 -105 -1 127 -1 126 27 20 c16 11 29 19 30 18 1 -1 -2 -20 -9 -42z m-785 -38 c31 -13 60 -26 63 -29 3 -3 -2 -17 -12 -31 -17 -27 -25 -28 -86 -4 -24 9 -28 16 -28 49 0 22 1 39 3 39 1 0 28 -11 60 -24z m707 -15 c0 -33 -4 -40 -27 -49 -65 -25 -71 -24 -87 5 l-14 28 56 27 c32 14 60 27 65 27 4 1 7 -16 7 -38z m-400 -50 l0 -48 -74 -5 c-52 -3 -90 -13 -125 -30 -51 -25 -51 -25 -51 -4 0 12 10 42 23 66 20 42 26 46 77 56 30 7 76 12 103 13 l47 1 0 -49z m175 36 c57 -12 61 -15 83 -57 12 -24 22 -54 22 -66 0 -21 0 -21 -52 5 -38 19 -73 27 -125 30 l-73 3 0 49 0 49 43 0 c23 -1 69 -6 102 -13z m-455 -108 c0 -13 -7 -19 -24 -19 -39 0 -56 11 -56 35 0 22 2 22 40 13 29 -8 40 -16 40 -29z m672 16 c-5 -26 -39 -42 -67 -31 -37 14 -6 40 66 55 3 0 4 -10 1 -24z m-404 -34 c9 -5 12 -27 10 -70 l-3 -62 -75 -3 c-41 -2 -93 -11 -114 -20 -22 -9 -41 -15 -43 -12 -2 2 -6 26 -10 53 -5 49 -5 50 33 73 63 40 170 61 202 41z m232 -29 l55 -28 0 -52 c-1 -28 -3 -54 -6 -57 -3 -3 -23 2 -45 11 -21 9 -73 18 -114 20 l-75 3 -3 62 c-2 43 1 65 10 71 23 16 121 -1 178 -30z m-532 -8 c29 -8 32 -54 3 -54 -35 0 -51 12 -51 36 0 25 9 28 48 18z m702 -18 c0 -24 -16 -36 -51 -36 -29 0 -26 47 4 53 43 8 47 7 47 -17z m-1195 -142 c-28 -140 -121 -305 -221 -393 -26 -23 -48 -40 -50 -38 -5 5 72 250 94 300 31 69 87 142 140 183 25 19 47 32 49 30 2 -2 -3 -39 -12 -82z m1734 0 c64 -70 104 -150 156 -311 25 -76 45 -139 45 -141 0 -2 -21 14 -47 35 -128 105 -233 296 -257 466 l-5 37 31 -17 c16 -10 51 -41 77 -69z m-1209 64 c0 -7 3 -23 6 -35 6 -21 3 -23 -37 -23 -58 0 -72 10 -63 43 5 24 11 27 50 27 28 0 44 -4 44 -12z m684 -15 c9 -33 -5 -43 -63 -43 -35 0 -42 3 -37 16 3 9 6 24 6 35 0 16 7 19 44 19 39 0 45 -3 50 -27z m-404 -123 c0 -95 -1 -100 -21 -100 -71 0 -155 54 -190 121 l-20 40 43 19 c30 14 65 20 116 20 l72 0 0 -100z m218 80 l43 -19 -20 -40 c-35 -67 -119 -121 -190 -121 -20 0 -21 5 -21 100 l0 100 73 0 c50 0 85 -6 115 -20z m-858 7 c0 -13 -61 -180 -78 -213 -11 -22 -47 -65 -79 -95 -70 -65 -131 -138 -167 -199 -68 -117 1 59 85 218 35 64 73 146 85 181 22 64 23 65 81 87 60 22 73 26 73 21z m1379 -21 l64 -23 22 -64 c12 -35 51 -121 88 -190 37 -69 73 -144 81 -167 15 -41 14 -40 -70 48 -137 144 -179 206 -224 335 -10 27 -21 58 -25 68 -9 21 -13 21 64 -7z m-1005 -51 c3 -16 8 -60 11 -97 12 -141 72 -318 142 -418 16 -23 14 -22 -27 8 -25 18 -97 73 -161 122 l-116 90 18 87 c10 49 18 122 19 165 l0 76 55 -1 c53 -2 55 -3 59 -32z m676 -35 c0 -60 19 -189 35 -240 4 -14 -25 -42 -122 -117 -70 -55 -143 -110 -161 -122 l-32 -23 39 64 c66 105 105 243 126 448 l6 55 54 2 55 1 0 -68z m-530 -89 c25 -11 62 -23 83 -26 l37 -7 0 -210 c0 -202 -1 -209 -19 -196 -24 17 -62 63 -93 113 -52 84 -90 209 -112 369 l-5 39 32 -31 c18 -17 52 -40 77 -51z m369 0 c-14 -103 -55 -236 -91 -301 -34 -61 -105 -150 -119 -150 -5 0 -9 91 -9 209 l0 209 43 7 c53 9 125 45 156 79 14 14 26 25 27 23 2 -1 -2 -36 -7 -76z m844 -337 l-38 -22 -15 56 c-9 32 -20 64 -25 72 -5 8 19 -8 53 -34 l62 -49 -37 -23z m-2100 48 c-9 -29 -20 -52 -24 -52 -4 0 -21 6 -37 13 l-31 13 52 41 c29 22 53 40 54 39 1 -1 -5 -25 -14 -54z m759 -84 c120 -140 169 -254 176 -409 8 -175 -41 -348 -155 -559 l-47 -85 -18 43 c-42 96 -49 171 -58 602 -7 378 -12 443 -37 525 -8 26 79 -47 139 -117z m652 61 c-13 -51 -18 -149 -24 -484 -6 -326 -12 -434 -24 -481 -21 -84 -47 -147 -57 -137 -19 20 -129 256 -152 328 -102 317 -38 562 206 787 34 31 63 55 65 54 1 -2 -5 -32 -14 -67z m-808 -20 c11 -55 17 -179 24 -489 8 -426 13 -473 54 -572 22 -51 20 -58 -12 -58 -18 0 -38 10 -54 28 -24 24 -30 49 -60 232 -30 188 -33 223 -33 425 0 184 4 243 23 360 32 187 34 189 58 74z m892 -52 c51 -312 50 -442 -8 -817 -28 -176 -33 -197 -57 -222 -17 -18 -37 -28 -55 -28 -34 0 -34 0 -7 70 41 108 51 206 50 515 0 160 4 340 9 400 9 112 28 215 40 215 3 0 16 -60 28 -133z m-1529 -2 c24 -23 26 -32 25 -104 -1 -107 -9 -131 -38 -131 -38 0 -141 35 -175 59 -24 18 -31 30 -31 57 0 44 -21 53 -66 29 -19 -10 -36 -16 -39 -13 -7 6 136 101 185 123 48 21 106 13 139 -20z m2274 14 c67 -34 180 -109 173 -116 -3 -3 -17 2 -30 11 -14 9 -34 16 -45 16 -21 0 -37 -32 -26 -51 19 -30 -89 -92 -181 -104 l-51 -7 -7 32 c-10 51 -7 169 5 191 12 23 62 48 97 49 12 0 42 -10 65 -21z m-1298 -96 c28 -14 51 -26 51 -27 1 0 -4 -37 -12 -81 -7 -44 -13 -87 -14 -95 -1 -8 -9 10 -19 40 -22 68 -64 153 -100 200 l-26 35 35 -23 c19 -12 58 -34 85 -49z m245 22 c-39 -56 -79 -143 -95 -204 l-12 -46 -11 79 c-7 43 -15 89 -18 101 -5 19 0 25 28 34 18 7 56 27 83 46 28 18 51 34 53 34 2 1 -11 -19 -28 -44z m-1470 -210 c-37 -82 -47 -96 -66 -88 -21 8 -18 23 28 107 35 64 44 74 55 63 12 -11 9 -24 -17 -82z m2660 23 c43 -79 48 -103 24 -112 -21 -8 -97 152 -82 172 6 6 12 12 14 12 2 0 21 -33 44 -72z m-2591 -73 c-34 -90 -54 -119 -64 -92 -9 22 72 194 85 181 6 -6 -1 -38 -21 -89z m2548 -93 c-16 -20 -30 1 -62 90 -41 114 -21 123 31 13 30 -65 39 -94 31 -103z m-2447 146 c0 -24 -33 -133 -44 -145 -6 -7 -17 -9 -24 -5 -9 6 -7 22 11 68 13 32 27 67 30 77 7 19 27 23 27 5z m2333 -65 c18 -52 24 -80 17 -87 -15 -15 -26 2 -49 80 -25 84 -25 84 -8 84 6 0 25 -35 40 -77z m-2257 26 c-8 -53 -32 -109 -45 -109 -15 0 -14 18 5 76 9 27 17 55 20 62 2 6 9 12 15 12 8 0 10 -13 5 -41z m2171 -31 c11 -40 19 -75 17 -77 -9 -10 -35 25 -43 58 -23 87 -24 91 -9 91 10 0 22 -25 35 -72z m-1232 -568 c-7 -74 -16 -143 -20 -153 -4 -9 -19 -20 -33 -24 -20 -5 -30 0 -49 21 l-23 27 43 82 c24 45 53 106 66 135 12 30 24 52 25 50 2 -1 -3 -64 -9 -138z m355 -150 c-16 -30 -58 -37 -82 -13 -15 16 -22 41 -28 119 -18 195 -18 194 55 46 54 -108 64 -136 55 -152z m-631 -92 c37 -111 42 -157 51 -501 5 -186 12 -347 15 -357 8 -24 -16 -28 -34 -6 -7 8 -30 102 -52 208 -44 219 -49 326 -24 513 8 61 15 131 15 158 0 26 2 47 4 47 2 0 14 -28 25 -62z m841 -170 c17 -139 19 -182 10 -260 -14 -127 -73 -413 -89 -432 -15 -17 -46 -22 -36 -6 4 6 10 164 15 353 10 353 15 407 53 517 21 61 22 63 25 30 1 -19 11 -110 22 -202z m-676 206 c32 -31 5 -94 -52 -123 -32 -17 -47 -2 -63 61 -11 46 -10 53 7 65 25 18 89 17 108 -3z m575 -1 c19 -16 20 -22 9 -58 -6 -22 -16 -46 -21 -52 -28 -37 -107 17 -107 72 0 17 5 36 12 43 18 18 83 15 107 -5z m-515 -100 c-14 -32 -45 -92 -70 -133 -38 -63 -45 -69 -39 -40 15 72 49 145 88 187 22 24 41 43 43 43 2 0 -8 -26 -22 -57z m420 -74 c14 -30 28 -72 31 -94 7 -39 6 -38 -35 30 -43 71 -90 168 -90 185 0 21 71 -70 94 -121z m-538 -5 c-3 -9 -9 -27 -12 -41 -8 -31 -24 -12 -24 30 0 21 5 27 21 27 15 0 19 -4 15 -16z m614 -24 c0 -22 -4 -40 -8 -40 -4 0 -13 18 -19 40 -9 36 -8 40 8 40 15 0 19 -8 19 -40z m-481 -236 c1 -17 -13 -76 -30 -130 -33 -107 -54 -205 -64 -296 -5 -47 -10 -58 -24 -58 -15 0 -19 12 -24 83 -11 138 -7 328 7 398 13 62 47 141 85 198 15 24 16 22 33 -70 9 -52 17 -108 17 -125z m399 133 c48 -97 62 -172 62 -337 0 -203 -8 -280 -30 -280 -14 0 -19 17 -28 93 -7 52 -23 132 -37 178 -56 186 -57 193 -45 271 6 40 14 92 17 116 7 53 19 45 61 -41z m-520 -653 c17 -3 22 -11 22 -34 l0 -30 -37 16 c-21 9 -45 18 -53 22 -16 6 -30 22 -30 35 0 7 36 4 98 -9z m652 2 c0 -11 -97 -66 -116 -66 -2 0 -4 13 -4 30 0 26 4 30 38 35 20 4 42 8 47 10 22 8 35 4 35 -9z m-680 -83 c14 -7 31 -13 38 -13 6 0 12 -12 12 -26 0 -20 -4 -25 -16 -20 -9 3 -33 6 -55 6 -39 0 -39 0 -39 40 0 42 2 43 60 13z m671 -44 c-3 -4 -30 -9 -58 -11 -49 -5 -53 -3 -53 16 0 16 12 26 53 41 l52 20 6 -30 c3 -16 3 -33 0 -36z m-592 -165 c28 -130 23 -161 -34 -188 -52 -25 -172 -32 -217 -13 -51 21 -49 42 13 122 54 71 88 137 89 171 0 29 2 30 66 24 l58 -5 25 -111z m610 83 c6 -24 36 -78 66 -120 68 -93 81 -129 55 -152 -39 -35 -219 -27 -263 12 -34 31 -38 59 -21 141 10 42 20 93 23 112 6 34 8 35 61 41 30 3 58 6 61 7 4 1 12 -18 18 -41z" style="fill: rgb(255, 255, 255);"/>
  </g>
</svg>